<svg width="36" height="36" viewBox="0 0 36 36" fill="none" xmlns="http://www.w3.org/2000/svg">
<path d="M19.7277 17.3005L3.496 33.576C2.72018 32.8402 2.3009 31.8309 2.3009 30.7372V5.20985C2.3009 4.09546 2.74127 3.08592 3.53819 2.32928L19.7277 17.3005Z" fill="#2299F8"/>
<path d="M33.7573 17.9733C33.7573 19.4455 32.96 20.749 31.6387 21.4854L27.0259 24.0505L21.3005 18.7513L19.7278 17.3005L25.7882 11.2234L31.6387 14.4617C32.96 15.1982 33.7573 16.5016 33.7573 17.9733Z" fill="#FFC107"/>
<path d="M19.7277 17.3005L3.53821 2.32923C3.74781 2.11857 4.02069 1.9295 4.29329 1.76131C5.61426 0.962352 7.20817 0.940977 8.57104 1.69838L25.7882 11.2234L19.7277 17.3005Z" fill="#5ACF5F"/>
<path d="M27.0258 24.0506L8.57099 34.2489C7.92109 34.6276 7.18667 34.7955 6.47385 34.7955C5.71911 34.7955 4.96431 34.6063 4.29325 34.186C3.9992 34.0177 3.72667 33.8074 3.49597 33.576L19.7277 17.3004L21.3004 18.7513L27.0258 24.0506Z" fill="#F84437"/>
</svg>
